<?xml version="1.0" encoding="UTF-8" standalone="no"?>
<!-- Created with Inkscape (http://www.inkscape.org/) -->

<svg
   width="512"
   height="512"
   viewBox="0 0 512 512"
   version="1.1"
   id="svg5"
   inkscape:version="1.2.2 (b0a8486541, 2022-12-01)"
   sodipodi:docname="mamolinux-installer.svg"
   xmlns:inkscape="http://www.inkscape.org/namespaces/inkscape"
   xmlns:sodipodi="http://sodipodi.sourceforge.net/DTD/sodipodi-0.dtd"
   xmlns="http://www.w3.org/2000/svg"
   xmlns:svg="http://www.w3.org/2000/svg"
   xmlns:rdf="http://www.w3.org/1999/02/22-rdf-syntax-ns#"
   xmlns:cc="http://creativecommons.org/ns#">
  <sodipodi:namedview
     id="namedview7"
     pagecolor="#ffffff"
     bordercolor="#666666"
     borderopacity="1.0"
     inkscape:showpageshadow="2"
     inkscape:pageopacity="0.0"
     inkscape:pagecheckerboard="0"
     inkscape:deskcolor="#d1d1d1"
     inkscape:document-units="px"
     showgrid="false"
     inkscape:zoom="0.67617085"
     inkscape:cx="192.2591"
     inkscape:cy="273.59949"
     inkscape:window-width="1920"
     inkscape:window-height="1016"
     inkscape:window-x="0"
     inkscape:window-y="32"
     inkscape:window-maximized="1"
     inkscape:current-layer="layer1"
     inkscape:pageshadow="2" />
  <defs
     id="defs2" />
  <g
     inkscape:label="Layer 1"
     inkscape:groupmode="layer"
     id="layer1">
    <circle
       style="opacity:1;fill:#ffe680;fill-opacity:1;stroke-width:0.5"
       id="path225"
       cx="256"
       cy="256"
       r="256" />
    <path
       id="rect225"
       style="fill:#046a38;fill-opacity:1;stroke-width:0.923688"
       d="m 89.6,128 c -1.246454,0 -2.461563,0.12839 -3.640625,0.35312 -0.002,3.9e-4 -0.0042,-3.8e-4 -0.0062,0 -7.698692,1.46997 -13.73004,7.50131 -15.2,15.20001 -3.93e-4,0.002 3.93e-4,0.004 0,0.006 C 70.52839,144.73844 70.4,145.95354 70.4,147.2 V 147.2172 428.8 c 0,10.6368 8.5632,19.2 19.2,19.2 10.6368,0 19.2,-8.5632 19.2,-19.2 V 193.55313 l 217.27344,217.27343 c 7.52135,7.52135 19.63177,7.52135 27.15312,0 7.52135,-7.52135 7.52135,-19.63177 0,-27.15312 L 103.43594,133.88282 c -1.84431,-1.91619 -4.079576,-3.44745 -6.587502,-4.46563 -0.01396,-0.006 -0.02822,-0.01 -0.04218,-0.0156 -1.115367,-0.44977 -2.279809,-0.80199 -3.489063,-1.0375 -0.04521,-0.009 -0.09068,-0.0118 -0.135937,-0.0203 -1.149285,-0.21536 -2.332204,-0.33996 -3.545312,-0.34219 -0.0084,0 -0.01665,-0.002 -0.025,-0.002 -0.0037,0 -0.0073,0 -0.01094,0 z" />
    <path
       id="rect336"
       style="fill:#ff671f;fill-opacity:1;stroke-width:0.923688"
       d="m 422.4,128 c -5.92766,0 -11.20687,2.66375 -14.72344,6.85938 -0.38374,0.34515 -0.77156,0.68249 -1.14218,1.05312 L 162.6125,379.83594 c -9.21376,9.21376 -10.5776,22.68646 -3.05625,30.20781 7.52135,7.52135 20.99405,6.15751 30.20781,-3.05625 L 403.2,193.55313 V 428.8 c 0,10.6368 8.5632,19.2 19.2,19.2 10.6368,0 19.2,-8.5632 19.2,-19.2 V 147.2 c 0,-0.33399 -0.0333,-0.65936 -0.05,-0.98906 0.24685,-5.05351 -1.30472,-9.85004 -4.80782,-13.35312 -3.50308,-3.5031 -8.29961,-5.05467 -13.35312,-4.80782 C 423.05936,128.0333 422.73399,128 422.4,128 Z" />
    <path
       id="path850"
       style="color:#000000;fill:#000080;stroke-width:0.8;-inkscape-stroke:none"
       d="m 254.39998,64 v 0.04064 c -5.75228,0.118328 -11.35,0.863368 -16.72656,2.182808 l -0.006,-0.02184 -0.61563,0.165624 c -0.25391,0.06456 -0.50491,0.136032 -0.75781,0.203128 l -0.17188,0.04528 -1.54531,0.414064 0.006,0.02656 c -5.46938,1.588704 -10.69073,3.756704 -15.58437,6.456248 l -0.0141,-0.02344 -1.38438,0.8 -1.38594,0.8 0.011,0.01872 c -4.83236,2.93464 -9.3016,6.401944 -13.35937,10.295312 l -0.0406,-0.04064 -1.13125,1.131248 -1.13126,1.131256 0.0406,0.04064 c -3.89336,4.057773 -7.36067,8.52701 -10.29531,13.359372 l -0.0187,-0.0109 -0.8,1.38593 -0.8,1.38438 0.0234,0.0141 c -2.69954,4.89364 -4.86754,10.11499 -6.45625,15.58438 l -0.0266,-0.006 -0.41406,1.54531 -0.0453,0.17187 c -0.0671,0.2529 -0.13856,0.50391 -0.20313,0.75782 l -0.16562,0.61562 0.0218,0.006 c -1.31944,5.37656 -2.06448,10.97428 -2.18281,16.72656 H 179.2 v 1.6 1.6 h 0.0406 c 0.11831,5.75176 0.86359,11.3489 2.18281,16.725 l -0.0218,0.006 0.1625,0.60625 c 0.0676,0.26594 0.14215,0.52893 0.2125,0.79375 l 0.039,0.14532 0.41406,1.54531 0.025,-0.006 c 1.58862,5.46961 3.75827,10.69053 6.45781,15.58437 l -0.0234,0.0141 0.8,1.38594 0.8,1.38438 0.0187,-0.011 c 2.93459,4.83248 6.40196,9.30148 10.29531,13.35937 l -0.0406,0.0406 1.13126,1.13125 1.13125,1.13125 0.0406,-0.0406 c 4.05765,3.89337 8.52558,7.36221 13.3578,10.29688 l -0.009,0.0172 1.38594,0.8 1.38438,0.8 0.0125,-0.0234 c 4.89417,2.70001 10.11585,4.8689 15.58593,6.45781 l -0.006,0.025 1.54531,0.41406 0.0766,0.0203 c 0.29868,0.0797 0.59524,0.1645 0.89532,0.24062 l 0.57344,0.15313 0.005,-0.0203 c 5.377,1.31967 10.97532,2.06447 16.72812,2.18281 v 0.0406 h 1.6 1.6 v -0.0406 c 5.75228,-0.11833 11.35001,-0.86337 16.72656,-2.18281 l 0.005,0.0203 0.56407,-0.15157 c 0.31213,-0.0791 0.62064,-0.16704 0.93125,-0.25 0.0166,-0.005 0.0334,-0.008 0.05,-0.0125 l 1.54531,-0.41405 -0.006,-0.025 c 5.46991,-1.58875 10.69187,-3.75647 15.58593,-6.45626 l 0.0125,0.0218 1.38594,-0.8 1.38438,-0.8 -0.009,-0.0172 c 4.83236,-2.93463 9.3016,-6.40194 13.35937,-10.29531 l 0.039,0.039 1.13126,-1.13125 1.13125,-1.13125 -0.039,-0.039 c 3.89336,-4.05777 7.36068,-8.52701 10.29531,-13.35937 l 0.0172,0.009 0.8,-1.38438 0.8,-1.38593 -0.0219,-0.0125 c 2.69978,-4.89407 4.86751,-10.11603 6.45625,-15.58594 l 0.025,0.006 0.41407,-1.54531 0.0125,-0.05 c 0.0829,-0.3106 0.17086,-0.61911 0.25,-0.93125 l 0.15156,-0.56406 -0.0203,-0.005 c 1.31944,-5.37656 2.06449,-10.97428 2.18281,-16.72656 h 0.0406 v -1.6 -1.6 h -0.0406 c -0.11834,-5.75281 -0.86315,-11.35112 -2.18281,-16.72813 l 0.0203,-0.005 -0.15312,-0.57344 c -0.0762,-0.30008 -0.16098,-0.59664 -0.24063,-0.89531 l -0.0203,-0.0766 -0.41407,-1.54531 -0.025,0.006 c -1.58891,-5.47008 -3.75779,-10.69176 -6.45781,-15.58594 l 0.0234,-0.0125 -0.8,-1.38438 -0.8,-1.38594 -0.0172,0.009 C 318.7573,96.191179 315.28846,91.723253 311.3951,87.665599 l 0.0406,-0.04064 -1.13124,-1.131256 -1.13126,-1.131248 -0.0406,0.04064 c -4.05788,-3.893352 -8.52689,-7.36072 -13.35938,-10.295312 l 0.011,-0.01872 -1.38437,-0.8 -1.38594,-0.8 -0.0141,0.02344 c -4.89385,-2.699544 -10.11476,-4.869192 -15.58437,-6.457808 l 0.006,-0.02496 -1.54532,-0.414064 -0.14531,-0.03904 c -0.26482,-0.07032 -0.52781,-0.14492 -0.79375,-0.212496 l -0.60625,-0.162504 -0.006,0.02184 c -5.3761,-1.319216 -10.97325,-2.064496 -16.725,-2.182808 v -0.04064 h -1.6 z m 0,6.184376 V 128.65 L 239.26092,72.15156 c 4.86793,-1.180528 9.9332,-1.851448 15.13906,-1.967184 z m 3.2,0 c 5.20521,0.115728 10.27019,0.78536 15.1375,1.965624 l -15.1375,56.49375 z m -21.42968,2.793744 15.13906,56.49844 -29.25469,-50.668752 c 4.43512,-2.431104 9.16466,-4.38716 14.11563,-5.829688 z m 39.6578,0 c 4.95077,1.442376 9.68069,3.397232 14.11564,5.828128 l -29.25469,50.670312 z m -56.54531,7.426568 29.25626,50.671872 -41.35626,-41.356248 c 3.68005,-3.51776 7.72701,-6.653832 12.1,-9.315624 z m 73.43282,0 c 4.37257,2.6616 8.42027,5.798176 12.1,9.315624 l -41.35625,41.356248 z m -87.79531,11.578122 41.35624,41.35625 -50.67187,-29.25625 c 2.66179,-4.372991 5.79787,-8.41995 9.31563,-12.1 z m 102.1578,0 c 3.51781,3.680154 6.65384,7.726852 9.31564,12.1 l -50.67188,29.25625 z m -113.07031,14.87188 50.66875,29.25468 -56.49844,-15.13906 c 1.44253,-4.95096 3.39859,-9.6805 5.82969,-14.11562 z m 123.98282,0 c 2.43101,4.43512 4.38722,9.16466 5.82969,14.11562 l -56.49844,15.13906 z M 187.35154,124.06094 243.84998,139.2 h -58.46562 c 0.11574,-5.20586 0.78666,-10.27114 1.96718,-15.13906 z m 137.29532,0 c 1.18048,4.86792 1.85144,9.9332 1.96719,15.13906 H 268.14842 Z M 185.38436,142.4 h 58.45938 l -56.49376,15.1375 c -1.18026,-4.86732 -1.84989,-9.9323 -1.96562,-15.1375 z m 82.77031,0 h 58.45938 c -0.11573,5.2052 -0.78543,10.27018 -1.96563,15.1375 z m -23.47813,3.08906 -50.67031,29.25468 c -2.43089,-4.43494 -4.38575,-9.16485 -5.82813,-14.11562 z m 22.64532,0 56.49844,15.13906 c -1.44232,4.95077 -3.39732,9.68068 -5.82813,14.11562 z m -21.04532,2.77031 -41.35624,41.35625 c -3.51745,-3.67972 -6.65403,-7.72742 -9.31563,-12.1 z m 19.44532,0 50.67188,29.25625 c -2.66161,4.37275 -5.79656,8.42172 -9.31407,12.10156 z m -17.18281,2.2625 -29.25626,50.67187 c -4.37314,-2.66179 -8.41985,-5.79781 -12.1,-9.31562 z m 14.92031,0 41.35781,41.35782 c -3.67984,3.5175 -7.72881,6.65245 -12.10156,9.31405 z m -12.15,1.6 -15.13906,56.49844 c -4.95097,-1.44246 -9.68051,-3.39867 -14.11563,-5.82969 z m 9.37969,0 29.25469,50.67031 c -4.43495,2.4308 -9.16487,4.38582 -14.11564,5.82813 z m -6.28907,0.82656 v 58.46563 c -5.20586,-0.11574 -10.27113,-0.78671 -15.13906,-1.96719 z m 3.2,0.006 15.1375,56.49375 c -4.86731,1.18021 -9.93229,1.84991 -15.1375,1.96563 z" />
    <circle
       style="fill:#1caff3;stroke-width:6"
       cx="416"
       cy="416"
       id="circle12"
       r="96" />
    <path
       style="fill:#ffffff;stroke-width:6"
       d="m 415.79602,463.99997 -35.7936,-48 h 24 v -48 h 24 v 48 h 24 z"
       id="path14" />
  </g>
  <metadata
     id="metadata223">
    <rdf:RDF>
      <cc:License
         rdf:about="http://creativecommons.org/licenses/by-sa/4.0/">
        <cc:permits
           rdf:resource="http://creativecommons.org/ns#Reproduction" />
        <cc:permits
           rdf:resource="http://creativecommons.org/ns#Distribution" />
        <cc:requires
           rdf:resource="http://creativecommons.org/ns#Notice" />
        <cc:requires
           rdf:resource="http://creativecommons.org/ns#Attribution" />
        <cc:permits
           rdf:resource="http://creativecommons.org/ns#DerivativeWorks" />
        <cc:requires
           rdf:resource="http://creativecommons.org/ns#ShareAlike" />
      </cc:License>
      <cc:Work
         rdf:about="">
        <cc:license
           rdf:resource="http://creativecommons.org/licenses/by-sa/4.0/" />
      </cc:Work>
    </rdf:RDF>
  </metadata>
</svg>
